<svg xmlns="http://www.w3.org/2000/svg" width="136" height="28.8" viewBox="0 0 136 28.8">
  <g id="LogoFooter" transform="translate(-16.2 -13.2)">
    <g id="XMLID_10_" transform="translate(16.2 19.893)">
      <path id="XMLID_16_" d="M33.993,49.2H19.279l-3.079,4h6.343V64.614h4.794V53.2h3.5Z" transform="translate(-16.2 -49.2)" fill="#e1e1e1"/>
      <path id="XMLID_15_" d="M111.125,77.6a1.591,1.591,0,0,1,.074.516,1.567,1.567,0,0,1-.664,1.309,2.688,2.688,0,0,1-1.659.5H95.6v7.855h4.757V83.906h8.057a9.065,9.065,0,0,0,5.347-1.53,5.007,5.007,0,0,0,2.249-4.222c0-.184-.018-.35-.018-.535h-4.868Z" transform="translate(-80.96 -72.364)" fill="#e1e1e1"/>
      <path id="XMLID_14_" d="M101.5,53.2h1.106l.535-.682L105.7,49.2h-1.051l-2.4,3.042Z" transform="translate(-85.772 -49.2)" fill="#c81115"/>
      <path id="XMLID_13_" d="M114.5,53.283h15.783a5.241,5.241,0,0,0-1.936-2.452,8.858,8.858,0,0,0-5.31-1.53H116.6l-3.1,4h1Z" transform="translate(-95.56 -49.282)" fill="#e1e1e1"/>
      <path id="XMLID_12_" d="M226.789,78.964a7.82,7.82,0,0,0-4.683-1.364H208.074a4.02,4.02,0,0,0,1.844,2.784,7.561,7.561,0,0,0,4.351,1.2h7.836a3.745,3.745,0,0,1,1.346.221q.774.3.774.885,0,.553-.774.885a3.5,3.5,0,0,1-1.346.258H211.079L208,87.815h14.105a7.678,7.678,0,0,0,4.665-1.346,4.36,4.36,0,0,0,1.973-3.688A4.612,4.612,0,0,0,226.789,78.964Z" transform="translate(-172.636 -72.364)" fill="#c81115"/>
      <path id="XMLID_11_" d="M225.492,53.2l3.079-4H214.6a7.561,7.561,0,0,0-4.351,1.2,3.979,3.979,0,0,0-1.844,2.8h17.092Z" transform="translate(-172.962 -49.2)" fill="#c81115"/>
    </g>
    <g id="XMLID_19_" transform="translate(75.221 13.2)">
      <rect id="XMLID_78_" width="0.811" height="28.8" fill="#e1e1e1"/>
    </g>
    <g id="XMLID_17_" transform="translate(78.908 15.339)">
      <g id="XMLID_124_" transform="translate(0.018 0)">
        <path id="XMLID_125_" d="M358.539,26.662H356.4V25.5h5.55v1.162h-2.139v5.587h-1.272Z" transform="translate(-356.4 -25.371)" fill="#e1e1e1"/>
        <path id="XMLID_127_" d="M395.933,28.359a3.466,3.466,0,1,1-6.933,0,3.468,3.468,0,1,1,6.933,0Zm-5.679.018a2.214,2.214,0,1,0,4.425-.018,2.182,2.182,0,0,0-2.213-2.415A2.216,2.216,0,0,0,390.254,28.377Z" transform="translate(-382.989 -24.8)" fill="#e1e1e1"/>
        <path id="XMLID_130_" d="M429.539,26.662H427.4V25.5h5.55v1.162h-2.139v5.587h-1.272Z" transform="translate(-414.309 -25.371)" fill="#e1e1e1"/>
        <path id="XMLID_132_" d="M463.476,30.976h-3.522l-.572,1.272H458l3.024-6.748h1.383l3.024,6.748h-1.383Zm-1.77-4.056L460.452,29.8h2.508Z" transform="translate(-439.267 -25.371)" fill="#e1e1e1"/>
        <path id="XMLID_135_" d="M503.272,25.5v5.568h3.466v1.18H502V25.5Z" transform="translate(-475.154 -25.371)" fill="#e1e1e1"/>
      </g>
      <g id="XMLID_96_" transform="translate(0 8.758)">
        <path id="XMLID_97_" d="M359.49,77.475h-1.918v1.991H356.3V72.718c1.069,0,2.12-.018,3.19-.018A2.39,2.39,0,1,1,359.49,77.475Zm-1.9-1.162h1.918a1.2,1.2,0,1,0,0-2.4h-1.918Z" transform="translate(-356.3 -72.571)" fill="#e1e1e1"/>
        <path id="XMLID_100_" d="M396.652,79.548H391.6V72.8h5.052v1.235h-3.78v1.549h3.651v1.18h-3.651v1.53h3.78Z" transform="translate(-385.091 -72.652)" fill="#e1e1e1"/>
        <path id="XMLID_102_" d="M430.374,79.467h-1.512l-1.973-2.249h-1.217v2.249H424.4V72.7c1.069,0,2.139.018,3.208.018a2.247,2.247,0,0,1,2.434,2.231,2,2,0,0,1-1.715,2.12l2.047,2.3Zm-4.7-5.568v2.157h1.936a1.09,1.09,0,1,0,0-2.176h-1.936Z" transform="translate(-411.844 -72.571)" fill="#e1e1e1"/>
        <path id="XMLID_105_" d="M459.6,79.548V72.8h4.849v1.217h-3.577v1.844h3.393v1.18h-3.393V79.53H459.6Z" transform="translate(-440.553 -72.652)" fill="#e1e1e1"/>
        <path id="XMLID_107_" d="M497.033,75.559a3.466,3.466,0,1,1-6.933,0,3.468,3.468,0,1,1,6.933,0Zm-5.661.018a2.214,2.214,0,1,0,4.425-.018,2.182,2.182,0,0,0-2.213-2.415A2.214,2.214,0,0,0,491.372,75.577Z" transform="translate(-465.43 -72)" fill="#e1e1e1"/>
        <path id="XMLID_110_" d="M538.874,79.467h-1.512l-1.973-2.249h-1.217v2.249H532.9V72.7c1.069,0,2.139.018,3.208.018a2.247,2.247,0,0,1,2.434,2.231,2,2,0,0,1-1.715,2.12l2.047,2.3Zm-4.7-5.568v2.157h1.936a1.09,1.09,0,1,0,0-2.176h-1.936Z" transform="translate(-500.338 -72.571)" fill="#e1e1e1"/>
        <path id="XMLID_113_" d="M573.982,74.662l-2.194,2.932h-.258l-2.157-2.932v4.9H568.1V72.8h1.457l2.12,2.895L573.8,72.8h1.457v6.748h-1.272Z" transform="translate(-529.048 -72.652)" fill="#e1e1e1"/>
        <path id="XMLID_115_" d="M615.176,78.276h-3.522l-.572,1.272H609.7l3.005-6.748h1.383l3.024,6.748h-1.383Zm-1.77-4.075-1.254,2.876h2.508Z" transform="translate(-562.978 -72.652)" fill="#e1e1e1"/>
        <path id="XMLID_118_" d="M658.033,72.7h1.272v6.748h-.793v.018l-3.54-4.554v4.554H653.7V72.718h1.033l3.3,4.185Z" transform="translate(-598.865 -72.571)" fill="#e1e1e1"/>
        <path id="XMLID_120_" d="M695.439,78.048a3.562,3.562,0,0,1-2.563,1,3.327,3.327,0,0,1-3.577-3.485A3.393,3.393,0,0,1,692.876,72a3.446,3.446,0,0,1,2.471,1.033l-.848.811a2.27,2.27,0,0,0-1.623-.645,2.212,2.212,0,0,0-2.323,2.342,2.171,2.171,0,0,0,2.323,2.286,2.48,2.48,0,0,0,1.7-.682Z" transform="translate(-627.9 -72)" fill="#e1e1e1"/>
        <path id="XMLID_122_" d="M731.452,79.548H726.4V72.8h5.052v1.235h-3.78v1.549h3.651v1.18h-3.651v1.53h3.78Z" transform="translate(-658.16 -72.652)" fill="#e1e1e1"/>
      </g>
      <g id="XMLID_20_" transform="translate(0 17.368)">
        <path id="XMLID_80_" d="M360.854,120.262a1.945,1.945,0,0,0-1.6-.756c-.94,0-1.4.387-1.4.9,0,.59.7.756,1.512.848,1.4.166,2.71.535,2.71,2.157,0,1.512-1.328,2.157-2.839,2.157a2.784,2.784,0,0,1-2.932-1.659l1.069-.553a1.934,1.934,0,0,0,1.9,1.069c.793,0,1.549-.277,1.549-1.014,0-.645-.664-.9-1.567-1-1.383-.166-2.655-.535-2.655-2.047,0-1.383,1.364-1.954,2.618-1.973a2.726,2.726,0,0,1,2.655,1.346Z" transform="translate(-356.3 -118.4)" fill="#c81115"/>
        <path id="XMLID_84_" d="M398.333,122.459a3.466,3.466,0,1,1-6.933,0,3.468,3.468,0,1,1,6.933,0Zm-5.679.018a2.214,2.214,0,1,0,4.425-.018,2.182,2.182,0,0,0-2.213-2.415A2.205,2.205,0,0,0,392.654,122.477Z" transform="translate(-384.928 -118.808)" fill="#c81115"/>
        <path id="XMLID_87_" d="M440.019,119.7v3.872a2.743,2.743,0,0,1-2.913,3.024,2.818,2.818,0,0,1-3.005-3.024V119.7h1.254v3.872a1.66,1.66,0,0,0,1.752,1.862c1.051,0,1.641-.7,1.641-1.862V119.7Z" transform="translate(-419.755 -119.46)" fill="#c81115"/>
        <path id="XMLID_89_" d="M478.974,126.348h-1.512l-1.973-2.249h-1.217v2.249H473V119.6c1.069,0,2.139.018,3.208.018a2.247,2.247,0,0,1,2.434,2.231,2,2,0,0,1-1.715,2.12l2.047,2.3Zm-4.7-5.55v2.157h1.936a1.09,1.09,0,1,0,0-2.176h-1.936Z" transform="translate(-451.483 -119.379)" fill="#c81115"/>
        <path id="XMLID_92_" d="M513.339,124.848a3.562,3.562,0,0,1-2.563,1,3.327,3.327,0,0,1-3.577-3.485,3.393,3.393,0,0,1,3.577-3.559,3.446,3.446,0,0,1,2.471,1.033l-.848.811a2.269,2.269,0,0,0-1.623-.645,2.212,2.212,0,0,0-2.323,2.342,2.171,2.171,0,0,0,2.323,2.286,2.48,2.48,0,0,0,1.7-.682Z" transform="translate(-479.376 -118.726)" fill="#c81115"/>
        <path id="XMLID_94_" d="M549.252,126.348H544.2V119.6h5.052v1.235h-3.78v1.549h3.651v1.18h-3.651v1.53h3.78Z" transform="translate(-509.555 -119.379)" fill="#c81115"/>
      </g>
    </g>
  </g>
</svg>
